<svg width="512" height="512" viewBox="0 0 512 512" fill="none" xmlns="http://www.w3.org/2000/svg">
  <rect width="512" height="512" rx="128" fill="#1E293B"/>
  <path d="M128 192C128 174.327 142.327 160 160 160H224C241.673 160 256 174.327 256 192V352C256 369.673 241.673 384 224 384H160C142.327 384 128 369.673 128 352V192Z" fill="#3B82F6"/>
  <path d="M288 128C288 110.327 302.327 96 320 96H384C401.673 96 416 110.327 416 128V352C416 369.673 401.673 384 384 384H320C302.327 384 288 369.673 288 352V128Z" fill="#60A5FA"/>
  <circle cx="192" cy="224" r="12" fill="white" opacity="0.9"/>
  <circle cx="192" cy="272" r="12" fill="white" opacity="0.9"/>
  <circle cx="192" cy="320" r="12" fill="white" opacity="0.9"/>
  <circle cx="352" cy="160" r="12" fill="white" opacity="0.9"/>
  <circle cx="352" cy="208" r="12" fill="white" opacity="0.9"/>
  <circle cx="352" cy="256" r="12" fill="white" opacity="0.9"/>
  <circle cx="352" cy="304" r="12" fill="white" opacity="0.9"/>
</svg>
